<mxfile host="drawio-plugin" modified="2025-03-08T19:50:26.159Z" agent="5.0 (Windows NT 6.2; Win64; x64) AppleWebKit/537.36 (KHTML, like Gecko) Chrome/98.0.4758.102 Safari/537.36" etag="GpnlvWxVHpSmzwR_Znl8" version="20.5.3" type="embed" pages="5"><diagram id="23iRSUPoRavnBvh4doch" name="C1"><mxGraphModel dx="1337" dy="733" grid="1" gridSize="10" guides="1" tooltips="1" connect="1" arrows="1" fold="1" page="1" pageScale="1" pageWidth="827" pageHeight="1169" math="0" shadow="0"><root><mxCell id="0"/><mxCell id="1" parent="0"/><object placeholders="1" c4Name="Витрина данных" c4Type="Software System" c4Description="Формирование  отчётов по любым срезам" label="&lt;font style=&quot;font-size: 16px&quot;&gt;&lt;b&gt;%c4Name%&lt;/b&gt;&lt;/font&gt;&lt;div&gt;[%c4Type%]&lt;/div&gt;&lt;br&gt;&lt;div&gt;&lt;font style=&quot;font-size: 11px&quot;&gt;&lt;font color=&quot;#cccccc&quot;&gt;%c4Description%&lt;/font&gt;&lt;/div&gt;" id="2"><mxCell style="rounded=1;whiteSpace=wrap;html=1;labelBackgroundColor=none;fillColor=#1061B0;fontColor=#ffffff;align=center;arcSize=10;strokeColor=#0D5091;metaEdit=1;resizable=0;points=[[0.25,0,0],[0.5,0,0],[0.75,0,0],[1,0.25,0],[1,0.5,0],[1,0.75,0],[0.75,1,0],[0.5,1,0],[0.25,1,0],[0,0.75,0],[0,0.5,0],[0,0.25,0]];" parent="1" vertex="1"><mxGeometry x="330" y="300" width="240" height="120" as="geometry"/></mxCell></object><object placeholders="1" c4Name="Финтех сервисы" c4Type="Software System" c4Description="Система финансовых сервисов на Golang и Java" label="&lt;font style=&quot;font-size: 16px&quot;&gt;&lt;b&gt;%c4Name%&lt;/b&gt;&lt;/font&gt;&lt;div&gt;[%c4Type%]&lt;/div&gt;&lt;br&gt;&lt;div&gt;&lt;font style=&quot;font-size: 11px&quot;&gt;&lt;font color=&quot;#cccccc&quot;&gt;%c4Description%&lt;/font&gt;&lt;/div&gt;" id="3"><mxCell style="rounded=1;whiteSpace=wrap;html=1;labelBackgroundColor=none;fillColor=#1061B0;fontColor=#ffffff;align=center;arcSize=10;strokeColor=#0D5091;metaEdit=1;resizable=0;points=[[0.25,0,0],[0.5,0,0],[0.75,0,0],[1,0.25,0],[1,0.5,0],[1,0.75,0],[0.75,1,0],[0.5,1,0],[0.25,1,0],[0,0.75,0],[0,0.5,0],[0,0.25,0]];" parent="1" vertex="1"><mxGeometry x="50" y="130" width="240" height="120" as="geometry"/></mxCell></object><object placeholders="1" c4Name="DWH" c4Type="Software System" c4Description="Внутренняя медицинская система-DWH с клиентским интерфейсом и дополнительной бизнес-логикой под финтех- и ИИ-сервисы&#10;&#10;На базе SQL-сервера" label="&lt;font style=&quot;font-size: 16px&quot;&gt;&lt;b&gt;%c4Name%&lt;/b&gt;&lt;/font&gt;&lt;div&gt;[%c4Type%]&lt;/div&gt;&lt;br&gt;&lt;div&gt;&lt;font style=&quot;font-size: 11px&quot;&gt;&lt;font color=&quot;#cccccc&quot;&gt;%c4Description%&lt;/font&gt;&lt;/div&gt;" id="4"><mxCell style="rounded=1;whiteSpace=wrap;html=1;labelBackgroundColor=none;fillColor=#1061B0;fontColor=#ffffff;align=center;arcSize=10;strokeColor=#0D5091;metaEdit=1;resizable=0;points=[[0.25,0,0],[0.5,0,0],[0.75,0,0],[1,0.25,0],[1,0.5,0],[1,0.75,0],[0.75,1,0],[0.5,1,0],[0.25,1,0],[0,0.75,0],[0,0.5,0],[0,0.25,0]];" parent="1" vertex="1"><mxGeometry x="50" y="465" width="240" height="120" as="geometry"/></mxCell></object><object placeholders="1" c4Name="ИИ сервисы" c4Type="Software System" c4Description="ИИ-сервисы для работы с медицинскими данными" label="&lt;font style=&quot;font-size: 16px&quot;&gt;&lt;b&gt;%c4Name%&lt;/b&gt;&lt;/font&gt;&lt;div&gt;[%c4Type%]&lt;/div&gt;&lt;br&gt;&lt;div&gt;&lt;font style=&quot;font-size: 11px&quot;&gt;&lt;font color=&quot;#cccccc&quot;&gt;%c4Description%&lt;/font&gt;&lt;/div&gt;" id="5"><mxCell style="rounded=1;whiteSpace=wrap;html=1;labelBackgroundColor=none;fillColor=#1061B0;fontColor=#ffffff;align=center;arcSize=10;strokeColor=#0D5091;metaEdit=1;resizable=0;points=[[0.25,0,0],[0.5,0,0],[0.75,0,0],[1,0.25,0],[1,0.5,0],[1,0.75,0],[0.75,1,0],[0.5,1,0],[0.25,1,0],[0,0.75,0],[0,0.5,0],[0,0.25,0]];" parent="1" vertex="1"><mxGeometry x="50" y="300" width="240" height="120" as="geometry"/></mxCell></object><object placeholders="1" c4Name="Шина данных" c4Type="Software System" c4Description="Интеграционная шина данных на базе Apache Camel" label="&lt;font style=&quot;font-size: 16px&quot;&gt;&lt;b&gt;%c4Name%&lt;/b&gt;&lt;/font&gt;&lt;div&gt;[%c4Type%]&lt;/div&gt;&lt;br&gt;&lt;div&gt;&lt;font style=&quot;font-size: 11px&quot;&gt;&lt;font color=&quot;#cccccc&quot;&gt;%c4Description%&lt;/font&gt;&lt;/div&gt;" id="6"><mxCell style="rounded=1;whiteSpace=wrap;html=1;labelBackgroundColor=none;fillColor=#1061B0;fontColor=#ffffff;align=center;arcSize=10;strokeColor=#0D5091;metaEdit=1;resizable=0;points=[[0.25,0,0],[0.5,0,0],[0.75,0,0],[1,0.25,0],[1,0.5,0],[1,0.75,0],[0.75,1,0],[0.5,1,0],[0.25,1,0],[0,0.75,0],[0,0.5,0],[0,0.25,0]];" parent="1" vertex="1"><mxGeometry x="330" y="130" width="240" height="120" as="geometry"/></mxCell></object><object placeholders="1" c4Name="Power BI" c4Type="Software System" c4Description="" label="&lt;font style=&quot;font-size: 16px&quot;&gt;&lt;b&gt;%c4Name%&lt;/b&gt;&lt;/font&gt;&lt;div&gt;[%c4Type%]&lt;/div&gt;&lt;br&gt;&lt;div&gt;&lt;font style=&quot;font-size: 11px&quot;&gt;&lt;font color=&quot;#cccccc&quot;&gt;%c4Description%&lt;/font&gt;&lt;/div&gt;" id="7"><mxCell style="rounded=1;whiteSpace=wrap;html=1;labelBackgroundColor=none;fillColor=#1061B0;fontColor=#ffffff;align=center;arcSize=10;strokeColor=#0D5091;metaEdit=1;resizable=0;points=[[0.25,0,0],[0.5,0,0],[0.75,0,0],[1,0.25,0],[1,0.5,0],[1,0.75,0],[0.75,1,0],[0.5,1,0],[0.25,1,0],[0,0.75,0],[0,0.5,0],[0,0.25,0]];" parent="1" vertex="1"><mxGeometry x="330" y="470" width="240" height="120" as="geometry"/></mxCell></object><mxCell id="197l-86i7AskJh7iJ8gt-7" value="&lt;ul style=&quot;box-sizing: inherit; margin: var(--size-400, calc(var(--base-unit, calc(1rem * var(--base-ratio, 1))) * 1.25)) 0 0 var(--size-300, var(--base-unit, calc(1rem * var(--base-ratio, 1)))); padding: 0 0 0 var(--size-700, calc(var(--base-unit, calc(1rem * var(--base-ratio, 1))) * 2)); list-style: none; color: rgba(0, 0, 0, 0.85); font-family: &amp;quot;YS Text&amp;quot;, sans-serif; font-size: 18px; font-style: normal; font-variant-ligatures: normal; font-variant-caps: normal; font-weight: 400; letter-spacing: normal; orphans: 2; text-align: start; text-indent: 0px; text-transform: none; widows: 2; word-spacing: 0px; -webkit-text-stroke-width: 0px; background-color: rgb(255, 255, 255); text-decoration-thickness: initial; text-decoration-style: initial; text-decoration-color: initial;&quot;&gt;&lt;li style=&quot;box-sizing: inherit; position: relative;&quot;&gt;&lt;strong style=&quot;box-sizing: inherit;&quot;&gt;Финальное состояние (через год).&lt;/strong&gt; Реализован портал самообслуживания. Бизнес-пользователи в доменах могут использовать данные в рамках новой архитектуры. На этом этапе можно на некоторое время сохранить легаси-системы в отдельных доменах.&lt;/li&gt;&lt;/ul&gt;" style="text;whiteSpace=wrap;html=1;" parent="1" vertex="1"><mxGeometry x="610" y="140" width="560" height="150" as="geometry"/></mxCell><UserObject label="Задание" link="https://practicum.yandex.ru/learn/software-architect/courses/a12a97b7-f7d7-4fa6-be32-74c0288e743e/sprints/370414/topics/603c01d9-281a-4949-a158-518064df6f49/lessons/db078c45-7142-422d-b123-892430124c1c/" id="197l-86i7AskJh7iJ8gt-8"><mxCell style="text;html=1;strokeColor=none;fillColor=none;align=center;verticalAlign=middle;whiteSpace=wrap;rounded=0;" parent="1" vertex="1"><mxGeometry x="90" y="40" width="60" height="30" as="geometry"/></mxCell></UserObject><mxCell id="197l-86i7AskJh7iJ8gt-9" value="&lt;span style=&quot;color: rgba(0, 0, 0, 0.85); font-family: &amp;quot;YS Text&amp;quot;, sans-serif; font-size: 18px; font-style: normal; font-variant-ligatures: normal; font-variant-caps: normal; font-weight: 400; letter-spacing: normal; orphans: 2; text-align: start; text-indent: 0px; text-transform: none; widows: 2; word-spacing: 0px; -webkit-text-stroke-width: 0px; background-color: rgb(255, 255, 255); text-decoration-thickness: initial; text-decoration-style: initial; text-decoration-color: initial; float: none; display: inline !important;&quot;&gt;Таких характеристик больших данных может быть и больше, но основными считаются первые три V: Volume, Velocity, Variety.&lt;/span&gt;" style="text;whiteSpace=wrap;html=1;" parent="1" vertex="1"><mxGeometry x="860" y="400" width="560" height="90" as="geometry"/></mxCell><mxCell id="197l-86i7AskJh7iJ8gt-10" value="&lt;ul style=&quot;box-sizing: inherit; margin-top: var(--size-300, var(--base-unit, calc(1rem * var(--base-ratio, 1)))); padding: 0 0 0 var(--size-700, calc(var(--base-unit, calc(1rem * var(--base-ratio, 1))) * 2)); list-style: none; color: rgba(0, 0, 0, 0.85); font-family: &amp;quot;YS Text&amp;quot;, sans-serif; font-size: 18px; font-style: normal; font-variant-ligatures: normal; font-variant-caps: normal; font-weight: 400; letter-spacing: normal; orphans: 2; text-align: start; text-indent: 0px; text-transform: none; widows: 2; word-spacing: 0px; -webkit-text-stroke-width: 0px; background-color: rgb(255, 255, 255); text-decoration-thickness: initial; text-decoration-style: initial; text-decoration-color: initial;&quot;&gt;&lt;li style=&quot;box-sizing: inherit; position: relative; margin: 0 0 var(--size-100, calc(var(--base-unit, calc(1rem * var(--base-ratio, 1))) * 0.5));&quot;&gt;&lt;strong style=&quot;box-sizing: inherit;&quot;&gt;Объёмами (Volume):&lt;/strong&gt; гигабайты или терабайты против петабайтов и эксабайтов больших данных.&lt;/li&gt;&lt;/ul&gt;" style="text;whiteSpace=wrap;html=1;fontColor=#330000;" parent="1" vertex="1"><mxGeometry x="840" y="465" width="560" height="100" as="geometry"/></mxCell><mxCell id="197l-86i7AskJh7iJ8gt-11" value="&lt;ul style=&quot;box-sizing: inherit; margin-top: var(--size-300, var(--base-unit, calc(1rem * var(--base-ratio, 1)))); padding: 0 0 0 var(--size-700, calc(var(--base-unit, calc(1rem * var(--base-ratio, 1))) * 2)); list-style: none; color: rgba(0, 0, 0, 0.85); font-family: &amp;quot;YS Text&amp;quot;, sans-serif; font-size: 18px; font-style: normal; font-variant-ligatures: normal; font-variant-caps: normal; font-weight: 400; letter-spacing: normal; orphans: 2; text-align: start; text-indent: 0px; text-transform: none; widows: 2; word-spacing: 0px; -webkit-text-stroke-width: 0px; background-color: rgb(255, 255, 255); text-decoration-thickness: initial; text-decoration-style: initial; text-decoration-color: initial;&quot;&gt;&lt;li style=&quot;box-sizing: inherit; position: relative; margin: 0 0 var(--size-100, calc(var(--base-unit, calc(1rem * var(--base-ratio, 1))) * 0.5));&quot;&gt;&lt;strong style=&quot;box-sizing: inherit;&quot;&gt;Скоростью накопления (Velocity):&lt;/strong&gt; традиционные данные обновляются периодически и в большинстве своём статичны, тогда как большие данные могут расти экспоненциально и поступают в режиме реального времени (данные телеметрии, соцсети и так далее).&lt;/li&gt;&lt;/ul&gt;" style="text;whiteSpace=wrap;html=1;fontColor=#330000;" parent="1" vertex="1"><mxGeometry x="840" y="550" width="560" height="170" as="geometry"/></mxCell><mxCell id="197l-86i7AskJh7iJ8gt-12" value="&lt;ul style=&quot;box-sizing: inherit; margin-top: var(--size-300, var(--base-unit, calc(1rem * var(--base-ratio, 1)))); padding: 0 0 0 var(--size-700, calc(var(--base-unit, calc(1rem * var(--base-ratio, 1))) * 2)); list-style: none; color: rgba(0, 0, 0, 0.85); font-family: &amp;quot;YS Text&amp;quot;, sans-serif; font-size: 18px; font-style: normal; font-variant-ligatures: normal; font-variant-caps: normal; font-weight: 400; letter-spacing: normal; orphans: 2; text-align: start; text-indent: 0px; text-transform: none; widows: 2; word-spacing: 0px; -webkit-text-stroke-width: 0px; background-color: rgb(255, 255, 255); text-decoration-thickness: initial; text-decoration-style: initial; text-decoration-color: initial;&quot;&gt;&lt;li style=&quot;box-sizing: inherit; position: relative; margin: 0 0 var(--size-100, calc(var(--base-unit, calc(1rem * var(--base-ratio, 1))) * 0.5));&quot;&gt;&lt;strong style=&quot;box-sizing: inherit;&quot;&gt;Разнообразием (Variety):&lt;/strong&gt; традиционные данные чаще всего структурированы и легко поддаются анализу, тогда как большие имеют высокую вариативность (видеоконтент, изображения, текстовые данные).&lt;/li&gt;&lt;/ul&gt;" style="text;whiteSpace=wrap;html=1;fontColor=#330000;" parent="1" vertex="1"><mxGeometry x="840" y="720" width="560" height="140" as="geometry"/></mxCell><mxCell id="197l-86i7AskJh7iJ8gt-14" value="" style="shape=image;verticalLabelPosition=bottom;labelBackgroundColor=default;verticalAlign=top;aspect=fixed;imageAspect=0;image=https://pictures.s3.yandex.net/resources/image_15_1734363718.png;" parent="1" vertex="1"><mxGeometry x="1450" y="420" width="780" height="403.5" as="geometry"/></mxCell></root></mxGraphModel></diagram><diagram id="8i_M9Wmt8dOl9sMilWbp" name="C2"><mxGraphModel dx="5043" dy="2933" grid="1" gridSize="10" guides="1" tooltips="1" connect="1" arrows="1" fold="1" page="1" pageScale="1" pageWidth="850" pageHeight="1100" math="0" shadow="0"><root><mxCell id="0"/><mxCell id="1" parent="0"/><object placeholders="1" c4Name="Витрина данных" c4Type="SystemScopeBoundary" c4Application="Software System" label="&lt;font style=&quot;font-size: 16px&quot;&gt;&lt;b&gt;&lt;div style=&quot;text-align: left&quot;&gt;%c4Name%&lt;/div&gt;&lt;/b&gt;&lt;/font&gt;&lt;div style=&quot;text-align: left&quot;&gt;[%c4Application%]&lt;/div&gt;" id="EMeKOMLXcdAkjnv3p1Qj-1"><mxCell style="rounded=1;fontSize=11;whiteSpace=wrap;html=1;dashed=1;arcSize=20;fillColor=none;strokeColor=#666666;fontColor=#333333;labelBackgroundColor=none;align=left;verticalAlign=bottom;labelBorderColor=none;spacingTop=0;spacing=10;dashPattern=8 4;metaEdit=1;rotatable=0;perimeter=rectanglePerimeter;noLabel=0;labelPadding=0;allowArrows=0;connectable=0;expand=0;recursiveResize=0;editable=1;pointerEvents=0;absoluteArcSize=1;points=[[0.25,0,0],[0.5,0,0],[0.75,0,0],[1,0.25,0],[1,0.5,0],[1,0.75,0],[0.75,1,0],[0.5,1,0],[0.25,1,0],[0,0.75,0],[0,0.5,0],[0,0.25,0]];" parent="1" vertex="1"><mxGeometry x="170" y="1000" width="480" height="670" as="geometry"/></mxCell></object><mxCell id="GyOEUE6wmEK48pXzQRWV-2" style="edgeStyle=orthogonalEdgeStyle;rounded=0;orthogonalLoop=1;jettySize=auto;html=1;" edge="1" parent="1" source="uXZamKywYNKK_NegLSkp-1" target="DBlOYCLoVQVMYjwKYsTO-2"><mxGeometry relative="1" as="geometry"><Array as="points"><mxPoint x="-200" y="210"/></Array></mxGeometry></mxCell><mxCell id="GyOEUE6wmEK48pXzQRWV-9" style="edgeStyle=orthogonalEdgeStyle;rounded=0;orthogonalLoop=1;jettySize=auto;html=1;" edge="1" parent="1" source="uXZamKywYNKK_NegLSkp-1" target="GyOEUE6wmEK48pXzQRWV-8"><mxGeometry relative="1" as="geometry"/></mxCell><object placeholders="1" c4Type="Исходные данные" c4Container="Container" c4Technology="" c4Description="" label="&lt;font style=&quot;font-size: 16px&quot;&gt;&lt;b&gt;%c4Type%&lt;/b&gt;&lt;/font&gt;&lt;div&gt;[%c4Container%:&amp;nbsp;%c4Technology%]&lt;/div&gt;&lt;br&gt;&lt;div&gt;&lt;font style=&quot;font-size: 11px&quot;&gt;&lt;font color=&quot;#E6E6E6&quot;&gt;%c4Description%&lt;/font&gt;&lt;/div&gt;" id="uXZamKywYNKK_NegLSkp-1"><mxCell style="shape=cylinder3;size=15;whiteSpace=wrap;html=1;boundedLbl=1;rounded=0;labelBackgroundColor=none;fillColor=#23A2D9;fontSize=12;fontColor=#ffffff;align=center;strokeColor=#0E7DAD;metaEdit=1;points=[[0.5,0,0],[1,0.25,0],[1,0.5,0],[1,0.75,0],[0.5,1,0],[0,0.75,0],[0,0.5,0],[0,0.25,0]];resizable=0;" parent="1" vertex="1"><mxGeometry x="-650" y="150" width="240" height="120" as="geometry"/></mxCell></object><mxCell id="GyOEUE6wmEK48pXzQRWV-11" style="edgeStyle=orthogonalEdgeStyle;rounded=0;orthogonalLoop=1;jettySize=auto;html=1;" edge="1" parent="1" source="uXZamKywYNKK_NegLSkp-2" target="DBlOYCLoVQVMYjwKYsTO-2"><mxGeometry relative="1" as="geometry"><Array as="points"><mxPoint x="-200" y="510"/></Array></mxGeometry></mxCell><object placeholders="1" c4Type="Мета данные" c4Container="Container" c4Technology="" c4Description="" label="&lt;font style=&quot;font-size: 16px&quot;&gt;&lt;b&gt;%c4Type%&lt;/b&gt;&lt;/font&gt;&lt;div&gt;[%c4Container%:&amp;nbsp;%c4Technology%]&lt;/div&gt;&lt;br&gt;&lt;div&gt;&lt;font style=&quot;font-size: 11px&quot;&gt;&lt;font color=&quot;#E6E6E6&quot;&gt;%c4Description%&lt;/font&gt;&lt;/div&gt;" id="uXZamKywYNKK_NegLSkp-2"><mxCell style="shape=cylinder3;size=15;whiteSpace=wrap;html=1;boundedLbl=1;rounded=0;labelBackgroundColor=none;fillColor=#23A2D9;fontSize=12;fontColor=#ffffff;align=center;strokeColor=#0E7DAD;metaEdit=1;points=[[0.5,0,0],[1,0.25,0],[1,0.5,0],[1,0.75,0],[0.5,1,0],[0,0.75,0],[0,0.5,0],[0,0.25,0]];resizable=0;" parent="1" vertex="1"><mxGeometry x="-650" y="450" width="240" height="120" as="geometry"/></mxCell></object><mxCell id="GyOEUE6wmEK48pXzQRWV-4" style="edgeStyle=orthogonalEdgeStyle;rounded=0;orthogonalLoop=1;jettySize=auto;html=1;" edge="1" parent="1" source="DBlOYCLoVQVMYjwKYsTO-2" target="5u0WfhAQeUIpRheXeeQP-3"><mxGeometry relative="1" as="geometry"><Array as="points"><mxPoint x="-150" y="40"/></Array></mxGeometry></mxCell><mxCell id="GyOEUE6wmEK48pXzQRWV-5" style="edgeStyle=orthogonalEdgeStyle;rounded=0;orthogonalLoop=1;jettySize=auto;html=1;" edge="1" parent="1" source="DBlOYCLoVQVMYjwKYsTO-2" target="5u0WfhAQeUIpRheXeeQP-2"><mxGeometry relative="1" as="geometry"><Array as="points"><mxPoint x="-80" y="250"/></Array></mxGeometry></mxCell><mxCell id="GyOEUE6wmEK48pXzQRWV-6" style="edgeStyle=orthogonalEdgeStyle;rounded=0;orthogonalLoop=1;jettySize=auto;html=1;" edge="1" parent="1" source="DBlOYCLoVQVMYjwKYsTO-2" target="5u0WfhAQeUIpRheXeeQP-4"><mxGeometry relative="1" as="geometry"><Array as="points"><mxPoint x="-80" y="500"/></Array></mxGeometry></mxCell><mxCell id="GyOEUE6wmEK48pXzQRWV-7" style="edgeStyle=orthogonalEdgeStyle;rounded=0;orthogonalLoop=1;jettySize=auto;html=1;" edge="1" parent="1" source="DBlOYCLoVQVMYjwKYsTO-2" target="GyOEUE6wmEK48pXzQRWV-1"><mxGeometry relative="1" as="geometry"><Array as="points"><mxPoint x="-150" y="700"/></Array></mxGeometry></mxCell><object placeholders="1" c4Name="ETL оркестратор" c4Type="Container" c4Technology="Airflow" c4Description="" label="&lt;font style=&quot;font-size: 16px&quot;&gt;&lt;b&gt;%c4Name%&lt;/b&gt;&lt;/font&gt;&lt;div&gt;[%c4Type%: %c4Technology%]&lt;/div&gt;&lt;br&gt;&lt;div&gt;&lt;font style=&quot;font-size: 11px&quot;&gt;&lt;font color=&quot;#E6E6E6&quot;&gt;%c4Description%&lt;/font&gt;&lt;/div&gt;" id="DBlOYCLoVQVMYjwKYsTO-2"><mxCell style="rounded=1;whiteSpace=wrap;html=1;fontSize=11;labelBackgroundColor=none;fillColor=#23A2D9;fontColor=#ffffff;align=center;arcSize=10;strokeColor=#0E7DAD;metaEdit=1;resizable=0;points=[[0.25,0,0],[0.5,0,0],[0.75,0,0],[1,0.25,0],[1,0.5,0],[1,0.75,0],[0.75,1,0],[0.5,1,0],[0.25,1,0],[0,0.75,0],[0,0.5,0],[0,0.25,0]];" parent="1" vertex="1"><mxGeometry x="-270" y="310" width="240" height="120" as="geometry"/></mxCell></object><mxCell id="GyOEUE6wmEK48pXzQRWV-20" style="edgeStyle=orthogonalEdgeStyle;rounded=0;orthogonalLoop=1;jettySize=auto;html=1;" edge="1" parent="1" source="HTFtOqsjaucjWdzeqEvK-1" target="qfolQS0Iv-JqsglXWNlU-1"><mxGeometry relative="1" as="geometry"><Array as="points"><mxPoint x="640" y="-380"/></Array></mxGeometry></mxCell><object placeholders="1" c4Name="Контроллер" c4Type="Container" c4Technology="" c4Description="" label="&lt;font style=&quot;font-size: 16px&quot;&gt;&lt;b&gt;%c4Name%&lt;/b&gt;&lt;/font&gt;&lt;div&gt;[%c4Type%: %c4Technology%]&lt;/div&gt;&lt;br&gt;&lt;div&gt;&lt;font style=&quot;font-size: 11px&quot;&gt;&lt;font color=&quot;#E6E6E6&quot;&gt;%c4Description%&lt;/font&gt;&lt;/div&gt;" id="HTFtOqsjaucjWdzeqEvK-1"><mxCell style="rounded=1;whiteSpace=wrap;html=1;fontSize=11;labelBackgroundColor=none;fillColor=#23A2D9;fontColor=#ffffff;align=center;arcSize=10;strokeColor=#0E7DAD;metaEdit=1;resizable=0;points=[[0.25,0,0],[0.5,0,0],[0.75,0,0],[1,0.25,0],[1,0.5,0],[1,0.75,0],[0.75,1,0],[0.5,1,0],[0.25,1,0],[0,0.75,0],[0,0.5,0],[0,0.25,0]];" parent="1" vertex="1"><mxGeometry x="520" y="-20" width="240" height="120" as="geometry"/></mxCell></object><object placeholders="1" c4Name="UI отчетности" c4Type="Container" c4Technology="" c4Description="" label="&lt;font style=&quot;font-size: 16px&quot;&gt;&lt;b&gt;%c4Name%&lt;/b&gt;&lt;/font&gt;&lt;div&gt;[%c4Type%: %c4Technology%]&lt;/div&gt;&lt;br&gt;&lt;div&gt;&lt;font style=&quot;font-size: 11px&quot;&gt;&lt;font color=&quot;#E6E6E6&quot;&gt;%c4Description%&lt;/font&gt;&lt;/div&gt;" id="5u0WfhAQeUIpRheXeeQP-1"><mxCell style="rounded=1;whiteSpace=wrap;html=1;fontSize=11;labelBackgroundColor=none;fillColor=#23A2D9;fontColor=#ffffff;align=center;arcSize=10;strokeColor=#0E7DAD;metaEdit=1;resizable=0;points=[[0.25,0,0],[0.5,0,0],[0.75,0,0],[1,0.25,0],[1,0.5,0],[1,0.75,0],[0.75,1,0],[0.5,1,0],[0.25,1,0],[0,0.75,0],[0,0.5,0],[0,0.25,0]];" parent="1" vertex="1"><mxGeometry x="760" y="1440" width="240" height="120" as="geometry"/></mxCell></object><mxCell id="GyOEUE6wmEK48pXzQRWV-16" style="edgeStyle=orthogonalEdgeStyle;rounded=0;orthogonalLoop=1;jettySize=auto;html=1;" edge="1" parent="1" source="5u0WfhAQeUIpRheXeeQP-2" target="GyOEUE6wmEK48pXzQRWV-13"><mxGeometry relative="1" as="geometry"/></mxCell><object placeholders="1" c4Type="DB ML" c4Container="Container" c4Technology="" c4Description="" label="&lt;font style=&quot;font-size: 16px&quot;&gt;&lt;b&gt;%c4Type%&lt;/b&gt;&lt;/font&gt;&lt;div&gt;[%c4Container%:&amp;nbsp;%c4Technology%]&lt;/div&gt;&lt;br&gt;&lt;div&gt;&lt;font style=&quot;font-size: 11px&quot;&gt;&lt;font color=&quot;#E6E6E6&quot;&gt;%c4Description%&lt;/font&gt;&lt;/div&gt;" id="5u0WfhAQeUIpRheXeeQP-2"><mxCell style="shape=cylinder3;size=15;whiteSpace=wrap;html=1;boundedLbl=1;rounded=0;labelBackgroundColor=none;fillColor=#23A2D9;fontSize=12;fontColor=#ffffff;align=center;strokeColor=#0E7DAD;metaEdit=1;points=[[0.5,0,0],[1,0.25,0],[1,0.5,0],[1,0.75,0],[0.5,1,0],[0,0.75,0],[0,0.5,0],[0,0.25,0]];resizable=0;" parent="1" vertex="1"><mxGeometry x="140" y="190" width="240" height="120" as="geometry"/></mxCell></object><mxCell id="GyOEUE6wmEK48pXzQRWV-12" style="edgeStyle=orthogonalEdgeStyle;rounded=0;orthogonalLoop=1;jettySize=auto;html=1;" edge="1" parent="1" source="5u0WfhAQeUIpRheXeeQP-3" target="HTFtOqsjaucjWdzeqEvK-1"><mxGeometry relative="1" as="geometry"/></mxCell><object placeholders="1" c4Type="DB финтех" c4Container="Container" c4Technology="" c4Description="" label="&lt;font style=&quot;font-size: 16px&quot;&gt;&lt;b&gt;%c4Type%&lt;/b&gt;&lt;/font&gt;&lt;div&gt;[%c4Container%:&amp;nbsp;%c4Technology%]&lt;/div&gt;&lt;br&gt;&lt;div&gt;&lt;font style=&quot;font-size: 11px&quot;&gt;&lt;font color=&quot;#E6E6E6&quot;&gt;%c4Description%&lt;/font&gt;&lt;/div&gt;" id="5u0WfhAQeUIpRheXeeQP-3"><mxCell style="shape=cylinder3;size=15;whiteSpace=wrap;html=1;boundedLbl=1;rounded=0;labelBackgroundColor=none;fillColor=#23A2D9;fontSize=12;fontColor=#ffffff;align=center;strokeColor=#0E7DAD;metaEdit=1;points=[[0.5,0,0],[1,0.25,0],[1,0.5,0],[1,0.75,0],[0.5,1,0],[0,0.75,0],[0,0.5,0],[0,0.25,0]];resizable=0;" parent="1" vertex="1"><mxGeometry x="140" y="-20" width="240" height="120" as="geometry"/></mxCell></object><mxCell id="GyOEUE6wmEK48pXzQRWV-17" style="edgeStyle=orthogonalEdgeStyle;rounded=0;orthogonalLoop=1;jettySize=auto;html=1;" edge="1" parent="1" source="5u0WfhAQeUIpRheXeeQP-4" target="GyOEUE6wmEK48pXzQRWV-14"><mxGeometry relative="1" as="geometry"/></mxCell><object placeholders="1" c4Type="DB фармацевтика" c4Container="Container" c4Technology="" c4Description="" label="&lt;font style=&quot;font-size: 16px&quot;&gt;&lt;b&gt;%c4Type%&lt;/b&gt;&lt;/font&gt;&lt;div&gt;[%c4Container%:&amp;nbsp;%c4Technology%]&lt;/div&gt;&lt;br&gt;&lt;div&gt;&lt;font style=&quot;font-size: 11px&quot;&gt;&lt;font color=&quot;#E6E6E6&quot;&gt;%c4Description%&lt;/font&gt;&lt;/div&gt;" id="5u0WfhAQeUIpRheXeeQP-4"><mxCell style="shape=cylinder3;size=15;whiteSpace=wrap;html=1;boundedLbl=1;rounded=0;labelBackgroundColor=none;fillColor=#23A2D9;fontSize=12;fontColor=#ffffff;align=center;strokeColor=#0E7DAD;metaEdit=1;points=[[0.5,0,0],[1,0.25,0],[1,0.5,0],[1,0.75,0],[0.5,1,0],[0,0.75,0],[0,0.5,0],[0,0.25,0]];resizable=0;" parent="1" vertex="1"><mxGeometry x="140" y="430" width="240" height="120" as="geometry"/></mxCell></object><mxCell id="GyOEUE6wmEK48pXzQRWV-19" style="edgeStyle=orthogonalEdgeStyle;rounded=0;orthogonalLoop=1;jettySize=auto;html=1;" edge="1" parent="1" source="qfolQS0Iv-JqsglXWNlU-1" target="uXZamKywYNKK_NegLSkp-1"><mxGeometry relative="1" as="geometry"/></mxCell><object placeholders="1" c4Type="Шина данных" c4Container="Container" c4Technology="Apache Camel" c4Description="container role/responsibility." label="&lt;font style=&quot;font-size: 16px&quot;&gt;&lt;b&gt;%c4Type%&lt;/b&gt;&lt;/font&gt;&lt;div&gt;[%c4Container%:&amp;nbsp;%c4Technology%]&lt;/div&gt;&lt;br&gt;&lt;div&gt;&lt;font style=&quot;font-size: 11px&quot;&gt;&lt;font color=&quot;#E6E6E6&quot;&gt;%c4Description%&lt;/font&gt;&lt;/div&gt;" id="qfolQS0Iv-JqsglXWNlU-1"><mxCell style="shape=cylinder3;size=15;direction=south;whiteSpace=wrap;html=1;boundedLbl=1;rounded=0;labelBackgroundColor=none;fillColor=#23A2D9;fontSize=12;fontColor=#ffffff;align=center;strokeColor=#0E7DAD;metaEdit=1;points=[[0.5,0,0],[1,0.25,0],[1,0.5,0],[1,0.75,0],[0.5,1,0],[0,0.75,0],[0,0.5,0],[0,0.25,0]];resizable=0;" parent="1" vertex="1"><mxGeometry x="-580" y="-440" width="240" height="120" as="geometry"/></mxCell></object><mxCell id="OhluFPCrRhp2pNwpq7n2-2" style="edgeStyle=orthogonalEdgeStyle;rounded=0;orthogonalLoop=1;jettySize=auto;html=1;fontColor=#330000;startArrow=classic;startFill=1;" parent="1" source="OhluFPCrRhp2pNwpq7n2-1" target="qfolQS0Iv-JqsglXWNlU-1" edge="1"><mxGeometry relative="1" as="geometry"><Array as="points"><mxPoint x="-530" y="-230"/></Array></mxGeometry></mxCell><object placeholders="1" c4Name="ИИ сервисы" c4Type="Software System" c4Description="ИИ-сервисы для работы с медицинскими данными" label="&lt;font style=&quot;font-size: 16px&quot;&gt;&lt;b&gt;%c4Name%&lt;/b&gt;&lt;/font&gt;&lt;div&gt;[%c4Type%]&lt;/div&gt;&lt;br&gt;&lt;div&gt;&lt;font style=&quot;font-size: 11px&quot;&gt;&lt;font color=&quot;#cccccc&quot;&gt;%c4Description%&lt;/font&gt;&lt;/div&gt;" id="OhluFPCrRhp2pNwpq7n2-1"><mxCell style="rounded=1;whiteSpace=wrap;html=1;labelBackgroundColor=none;fillColor=#1061B0;fontColor=#ffffff;align=center;arcSize=10;strokeColor=#0D5091;metaEdit=1;resizable=0;points=[[0.25,0,0],[0.5,0,0],[0.75,0,0],[1,0.25,0],[1,0.5,0],[1,0.75,0],[0.75,1,0],[0.5,1,0],[0.25,1,0],[0,0.75,0],[0,0.5,0],[0,0.25,0]];" parent="1" vertex="1"><mxGeometry x="-1200" y="-290" width="240" height="120" as="geometry"/></mxCell></object><mxCell id="hm6NtoqCERlV51BhnNZn-2" style="edgeStyle=orthogonalEdgeStyle;rounded=0;orthogonalLoop=1;jettySize=auto;html=1;fontColor=#330000;startArrow=classic;startFill=1;" parent="1" source="hm6NtoqCERlV51BhnNZn-1" target="qfolQS0Iv-JqsglXWNlU-1" edge="1"><mxGeometry relative="1" as="geometry"/></mxCell><object placeholders="1" c4Name="Финтех сервисы" c4Type="Software System" c4Description="Система финансовых сервисов на Golang и Java" label="&lt;font style=&quot;font-size: 16px&quot;&gt;&lt;b&gt;%c4Name%&lt;/b&gt;&lt;/font&gt;&lt;div&gt;[%c4Type%]&lt;/div&gt;&lt;br&gt;&lt;div&gt;&lt;font style=&quot;font-size: 11px&quot;&gt;&lt;font color=&quot;#cccccc&quot;&gt;%c4Description%&lt;/font&gt;&lt;/div&gt;" id="hm6NtoqCERlV51BhnNZn-1"><mxCell style="rounded=1;whiteSpace=wrap;html=1;labelBackgroundColor=none;fillColor=#1061B0;fontColor=#ffffff;align=center;arcSize=10;strokeColor=#0D5091;metaEdit=1;resizable=0;points=[[0.25,0,0],[0.5,0,0],[0.75,0,0],[1,0.25,0],[1,0.5,0],[1,0.75,0],[0.75,1,0],[0.5,1,0],[0.25,1,0],[0,0.75,0],[0,0.5,0],[0,0.25,0]];" parent="1" vertex="1"><mxGeometry x="-1200" y="-570" width="240" height="120" as="geometry"/></mxCell></object><object placeholders="1" c4Name="DWH" c4Type="SystemScopeBoundary" c4Application="Software System" label="&lt;font style=&quot;font-size: 16px&quot;&gt;&lt;b&gt;&lt;div style=&quot;text-align: left&quot;&gt;%c4Name%&lt;/div&gt;&lt;/b&gt;&lt;/font&gt;&lt;div style=&quot;text-align: left&quot;&gt;[%c4Application%]&lt;/div&gt;" id="xQ56l7ESMh-1y7J8jq1y-1"><mxCell style="rounded=1;fontSize=11;whiteSpace=wrap;html=1;dashed=1;arcSize=20;fillColor=none;strokeColor=#666666;fontColor=#333333;labelBackgroundColor=none;align=left;verticalAlign=bottom;labelBorderColor=none;spacingTop=0;spacing=10;dashPattern=8 4;metaEdit=1;rotatable=0;perimeter=rectanglePerimeter;noLabel=0;labelPadding=0;allowArrows=0;connectable=0;expand=0;recursiveResize=0;editable=1;pointerEvents=0;absoluteArcSize=1;points=[[0.25,0,0],[0.5,0,0],[0.75,0,0],[1,0.25,0],[1,0.5,0],[1,0.75,0],[0.75,1,0],[0.5,1,0],[0.25,1,0],[0,0.75,0],[0,0.5,0],[0,0.25,0]];" parent="1" vertex="1"><mxGeometry x="-1140" y="-130" width="2000" height="950" as="geometry"/></mxCell></object><mxCell id="GyOEUE6wmEK48pXzQRWV-18" style="edgeStyle=orthogonalEdgeStyle;rounded=0;orthogonalLoop=1;jettySize=auto;html=1;" edge="1" parent="1" source="GyOEUE6wmEK48pXzQRWV-1" target="GyOEUE6wmEK48pXzQRWV-15"><mxGeometry relative="1" as="geometry"/></mxCell><object placeholders="1" c4Type="DB оборудование" c4Container="Container" c4Technology="" c4Description="" label="&lt;font style=&quot;font-size: 16px&quot;&gt;&lt;b&gt;%c4Type%&lt;/b&gt;&lt;/font&gt;&lt;div&gt;[%c4Container%:&amp;nbsp;%c4Technology%]&lt;/div&gt;&lt;br&gt;&lt;div&gt;&lt;font style=&quot;font-size: 11px&quot;&gt;&lt;font color=&quot;#E6E6E6&quot;&gt;%c4Description%&lt;/font&gt;&lt;/div&gt;" id="GyOEUE6wmEK48pXzQRWV-1"><mxCell style="shape=cylinder3;size=15;whiteSpace=wrap;html=1;boundedLbl=1;rounded=0;labelBackgroundColor=none;fillColor=#23A2D9;fontSize=12;fontColor=#ffffff;align=center;strokeColor=#0E7DAD;metaEdit=1;points=[[0.5,0,0],[1,0.25,0],[1,0.5,0],[1,0.75,0],[0.5,1,0],[0,0.75,0],[0,0.5,0],[0,0.25,0]];resizable=0;" vertex="1" parent="1"><mxGeometry x="140" y="630" width="240" height="120" as="geometry"/></mxCell></object><mxCell id="GyOEUE6wmEK48pXzQRWV-10" style="edgeStyle=orthogonalEdgeStyle;rounded=0;orthogonalLoop=1;jettySize=auto;html=1;" edge="1" parent="1" source="GyOEUE6wmEK48pXzQRWV-8" target="uXZamKywYNKK_NegLSkp-2"><mxGeometry relative="1" as="geometry"><Array as="points"><mxPoint x="-930" y="510"/></Array></mxGeometry></mxCell><object placeholders="1" c4Name="Система тегирования данных" c4Type="Software System" c4Description="Description of software system." label="&lt;font style=&quot;font-size: 16px&quot;&gt;&lt;b&gt;%c4Name%&lt;/b&gt;&lt;/font&gt;&lt;div&gt;[%c4Type%]&lt;/div&gt;&lt;br&gt;&lt;div&gt;&lt;font style=&quot;font-size: 11px&quot;&gt;&lt;font color=&quot;#cccccc&quot;&gt;%c4Description%&lt;/font&gt;&lt;/div&gt;" id="GyOEUE6wmEK48pXzQRWV-8"><mxCell style="rounded=1;whiteSpace=wrap;html=1;labelBackgroundColor=none;fillColor=#1061B0;fontColor=#ffffff;align=center;arcSize=10;strokeColor=#0D5091;metaEdit=1;resizable=0;points=[[0.25,0,0],[0.5,0,0],[0.75,0,0],[1,0.25,0],[1,0.5,0],[1,0.75,0],[0.75,1,0],[0.5,1,0],[0.25,1,0],[0,0.75,0],[0,0.5,0],[0,0.25,0]];" vertex="1" parent="1"><mxGeometry x="-1520" y="300" width="240" height="120" as="geometry"/></mxCell></object><object placeholders="1" c4Name="Контроллер" c4Type="Container" c4Technology="" c4Description="" label="&lt;font style=&quot;font-size: 16px&quot;&gt;&lt;b&gt;%c4Name%&lt;/b&gt;&lt;/font&gt;&lt;div&gt;[%c4Type%: %c4Technology%]&lt;/div&gt;&lt;br&gt;&lt;div&gt;&lt;font style=&quot;font-size: 11px&quot;&gt;&lt;font color=&quot;#E6E6E6&quot;&gt;%c4Description%&lt;/font&gt;&lt;/div&gt;" id="GyOEUE6wmEK48pXzQRWV-13"><mxCell style="rounded=1;whiteSpace=wrap;html=1;fontSize=11;labelBackgroundColor=none;fillColor=#23A2D9;fontColor=#ffffff;align=center;arcSize=10;strokeColor=#0E7DAD;metaEdit=1;resizable=0;points=[[0.25,0,0],[0.5,0,0],[0.75,0,0],[1,0.25,0],[1,0.5,0],[1,0.75,0],[0.75,1,0],[0.5,1,0],[0.25,1,0],[0,0.75,0],[0,0.5,0],[0,0.25,0]];" vertex="1" parent="1"><mxGeometry x="520" y="190" width="240" height="120" as="geometry"/></mxCell></object><object placeholders="1" c4Name="Контроллер" c4Type="Container" c4Technology="" c4Description="" label="&lt;font style=&quot;font-size: 16px&quot;&gt;&lt;b&gt;%c4Name%&lt;/b&gt;&lt;/font&gt;&lt;div&gt;[%c4Type%: %c4Technology%]&lt;/div&gt;&lt;br&gt;&lt;div&gt;&lt;font style=&quot;font-size: 11px&quot;&gt;&lt;font color=&quot;#E6E6E6&quot;&gt;%c4Description%&lt;/font&gt;&lt;/div&gt;" id="GyOEUE6wmEK48pXzQRWV-14"><mxCell style="rounded=1;whiteSpace=wrap;html=1;fontSize=11;labelBackgroundColor=none;fillColor=#23A2D9;fontColor=#ffffff;align=center;arcSize=10;strokeColor=#0E7DAD;metaEdit=1;resizable=0;points=[[0.25,0,0],[0.5,0,0],[0.75,0,0],[1,0.25,0],[1,0.5,0],[1,0.75,0],[0.75,1,0],[0.5,1,0],[0.25,1,0],[0,0.75,0],[0,0.5,0],[0,0.25,0]];" vertex="1" parent="1"><mxGeometry x="520" y="430" width="240" height="120" as="geometry"/></mxCell></object><object placeholders="1" c4Name="Контроллер" c4Type="Container" c4Technology="" c4Description="" label="&lt;font style=&quot;font-size: 16px&quot;&gt;&lt;b&gt;%c4Name%&lt;/b&gt;&lt;/font&gt;&lt;div&gt;[%c4Type%: %c4Technology%]&lt;/div&gt;&lt;br&gt;&lt;div&gt;&lt;font style=&quot;font-size: 11px&quot;&gt;&lt;font color=&quot;#E6E6E6&quot;&gt;%c4Description%&lt;/font&gt;&lt;/div&gt;" id="GyOEUE6wmEK48pXzQRWV-15"><mxCell style="rounded=1;whiteSpace=wrap;html=1;fontSize=11;labelBackgroundColor=none;fillColor=#23A2D9;fontColor=#ffffff;align=center;arcSize=10;strokeColor=#0E7DAD;metaEdit=1;resizable=0;points=[[0.25,0,0],[0.5,0,0],[0.75,0,0],[1,0.25,0],[1,0.5,0],[1,0.75,0],[0.75,1,0],[0.5,1,0],[0.25,1,0],[0,0.75,0],[0,0.5,0],[0,0.25,0]];" vertex="1" parent="1"><mxGeometry x="520" y="630" width="240" height="120" as="geometry"/></mxCell></object><object placeholders="1" c4Type="DB медицина" c4Container="Container" c4Technology="" c4Description="" label="&lt;font style=&quot;font-size: 16px&quot;&gt;&lt;b&gt;%c4Type%&lt;/b&gt;&lt;/font&gt;&lt;div&gt;[%c4Container%:&amp;nbsp;%c4Technology%]&lt;/div&gt;&lt;br&gt;&lt;div&gt;&lt;font style=&quot;font-size: 11px&quot;&gt;&lt;font color=&quot;#E6E6E6&quot;&gt;%c4Description%&lt;/font&gt;&lt;/div&gt;" id="GyOEUE6wmEK48pXzQRWV-21"><mxCell style="shape=cylinder3;size=15;whiteSpace=wrap;html=1;boundedLbl=1;rounded=0;labelBackgroundColor=none;fillColor=#23A2D9;fontSize=12;fontColor=#ffffff;align=center;strokeColor=#0E7DAD;metaEdit=1;points=[[0.5,0,0],[1,0.25,0],[1,0.5,0],[1,0.75,0],[0.5,1,0],[0,0.75,0],[0,0.5,0],[0,0.25,0]];resizable=0;" vertex="1" parent="1"><mxGeometry x="140" y="-210" width="240" height="120" as="geometry"/></mxCell></object><mxCell id="Z7a_9vQRNPoOsuvVyZUF-4" style="edgeStyle=orthogonalEdgeStyle;rounded=0;orthogonalLoop=1;jettySize=auto;html=1;" edge="1" parent="1" source="5u0WfhAQeUIpRheXeeQP-1" target="Z7a_9vQRNPoOsuvVyZUF-7"><mxGeometry relative="1" as="geometry"/></mxCell><mxCell id="Z7a_9vQRNPoOsuvVyZUF-9" style="edgeStyle=orthogonalEdgeStyle;rounded=0;orthogonalLoop=1;jettySize=auto;html=1;" edge="1" parent="1" source="Z7a_9vQRNPoOsuvVyZUF-3" target="5u0WfhAQeUIpRheXeeQP-1"><mxGeometry relative="1" as="geometry"/></mxCell><object placeholders="1" c4Name="Person name" c4Type="Person" c4Description="Description of person." label="&lt;font style=&quot;font-size: 16px&quot;&gt;&lt;b&gt;%c4Name%&lt;/b&gt;&lt;/font&gt;&lt;div&gt;[%c4Type%]&lt;/div&gt;&lt;br&gt;&lt;div&gt;&lt;font style=&quot;font-size: 11px&quot;&gt;&lt;font color=&quot;#cccccc&quot;&gt;%c4Description%&lt;/font&gt;&lt;/div&gt;" id="Z7a_9vQRNPoOsuvVyZUF-3"><mxCell style="html=1;fontSize=11;dashed=0;whiteSpace=wrap;fillColor=#083F75;strokeColor=#06315C;fontColor=#ffffff;shape=mxgraph.c4.person2;align=center;metaEdit=1;points=[[0.5,0,0],[1,0.5,0],[1,0.75,0],[0.75,1,0],[0.5,1,0],[0.25,1,0],[0,0.75,0],[0,0.5,0]];resizable=0;" vertex="1" parent="1"><mxGeometry x="1180" y="1410" width="200" height="180" as="geometry"/></mxCell></object><object placeholders="1" c4Name="AIM" c4Type="Container" c4Technology="" c4Description="" label="&lt;font style=&quot;font-size: 16px&quot;&gt;&lt;b&gt;%c4Name%&lt;/b&gt;&lt;/font&gt;&lt;div&gt;[%c4Type%: %c4Technology%]&lt;/div&gt;&lt;br&gt;&lt;div&gt;&lt;font style=&quot;font-size: 11px&quot;&gt;&lt;font color=&quot;#E6E6E6&quot;&gt;%c4Description%&lt;/font&gt;&lt;/div&gt;" id="Z7a_9vQRNPoOsuvVyZUF-5"><mxCell style="rounded=1;whiteSpace=wrap;html=1;fontSize=11;labelBackgroundColor=none;fillColor=#23A2D9;fontColor=#ffffff;align=center;arcSize=10;strokeColor=#0E7DAD;metaEdit=1;resizable=0;points=[[0.25,0,0],[0.5,0,0],[0.75,0,0],[1,0.25,0],[1,0.5,0],[1,0.75,0],[0.75,1,0],[0.5,1,0],[0.25,1,0],[0,0.75,0],[0,0.5,0],[0,0.25,0]];" vertex="1" parent="1"><mxGeometry x="290" y="1070" width="240" height="120" as="geometry"/></mxCell></object><mxCell id="Z7a_9vQRNPoOsuvVyZUF-8" style="edgeStyle=orthogonalEdgeStyle;rounded=0;orthogonalLoop=1;jettySize=auto;html=1;" edge="1" parent="1" source="Z7a_9vQRNPoOsuvVyZUF-7" target="Z7a_9vQRNPoOsuvVyZUF-5"><mxGeometry relative="1" as="geometry"/></mxCell><object placeholders="1" c4Name="API Gateway" c4Type="Container" c4Technology="" c4Description="" label="&lt;font style=&quot;font-size: 16px&quot;&gt;&lt;b&gt;%c4Name%&lt;/b&gt;&lt;/font&gt;&lt;div&gt;[%c4Type%: %c4Technology%]&lt;/div&gt;&lt;br&gt;&lt;div&gt;&lt;font style=&quot;font-size: 11px&quot;&gt;&lt;font color=&quot;#E6E6E6&quot;&gt;%c4Description%&lt;/font&gt;&lt;/div&gt;" id="Z7a_9vQRNPoOsuvVyZUF-7"><mxCell style="rounded=1;whiteSpace=wrap;html=1;fontSize=11;labelBackgroundColor=none;fillColor=#23A2D9;fontColor=#ffffff;align=center;arcSize=10;strokeColor=#0E7DAD;metaEdit=1;resizable=0;points=[[0.25,0,0],[0.5,0,0],[0.75,0,0],[1,0.25,0],[1,0.5,0],[1,0.75,0],[0.75,1,0],[0.5,1,0],[0.25,1,0],[0,0.75,0],[0,0.5,0],[0,0.25,0]];" vertex="1" parent="1"><mxGeometry x="290" y="1440" width="240" height="120" as="geometry"/></mxCell></object><mxCell id="85sUpvyYu7XLjou6rN53-2" style="edgeStyle=orthogonalEdgeStyle;rounded=0;orthogonalLoop=1;jettySize=auto;html=1;" edge="1" parent="1" source="85sUpvyYu7XLjou6rN53-1" target="qfolQS0Iv-JqsglXWNlU-1"><mxGeometry relative="1" as="geometry"/></mxCell><object placeholders="1" c4Name="Сервисы фармацевтики" c4Type="Software System" c4Description="Система финансовых сервисов на Golang и Java" label="&lt;font style=&quot;font-size: 16px&quot;&gt;&lt;b&gt;%c4Name%&lt;/b&gt;&lt;/font&gt;&lt;div&gt;[%c4Type%]&lt;/div&gt;&lt;br&gt;&lt;div&gt;&lt;font style=&quot;font-size: 11px&quot;&gt;&lt;font color=&quot;#cccccc&quot;&gt;%c4Description%&lt;/font&gt;&lt;/div&gt;" id="85sUpvyYu7XLjou6rN53-1"><mxCell style="rounded=1;whiteSpace=wrap;html=1;labelBackgroundColor=none;fillColor=#1061B0;fontColor=#ffffff;align=center;arcSize=10;strokeColor=#0D5091;metaEdit=1;resizable=0;points=[[0.25,0,0],[0.5,0,0],[0.75,0,0],[1,0.25,0],[1,0.5,0],[1,0.75,0],[0.75,1,0],[0.5,1,0],[0.25,1,0],[0,0.75,0],[0,0.5,0],[0,0.25,0]];" vertex="1" parent="1"><mxGeometry x="-620" y="-740" width="240" height="120" as="geometry"/></mxCell></object><mxCell id="85sUpvyYu7XLjou6rN53-4" style="edgeStyle=orthogonalEdgeStyle;rounded=0;orthogonalLoop=1;jettySize=auto;html=1;" edge="1" parent="1" source="85sUpvyYu7XLjou6rN53-3" target="qfolQS0Iv-JqsglXWNlU-1"><mxGeometry relative="1" as="geometry"><Array as="points"><mxPoint x="-350" y="-680"/></Array></mxGeometry></mxCell><object placeholders="1" c4Name="Медицинские сервисы" c4Type="Software System" c4Description="Система финансовых сервисов на Golang и Java" label="&lt;font style=&quot;font-size: 16px&quot;&gt;&lt;b&gt;%c4Name%&lt;/b&gt;&lt;/font&gt;&lt;div&gt;[%c4Type%]&lt;/div&gt;&lt;br&gt;&lt;div&gt;&lt;font style=&quot;font-size: 11px&quot;&gt;&lt;font color=&quot;#cccccc&quot;&gt;%c4Description%&lt;/font&gt;&lt;/div&gt;" id="85sUpvyYu7XLjou6rN53-3"><mxCell style="rounded=1;whiteSpace=wrap;html=1;labelBackgroundColor=none;fillColor=#1061B0;fontColor=#ffffff;align=center;arcSize=10;strokeColor=#0D5091;metaEdit=1;resizable=0;points=[[0.25,0,0],[0.5,0,0],[0.75,0,0],[1,0.25,0],[1,0.5,0],[1,0.75,0],[0.75,1,0],[0.5,1,0],[0.25,1,0],[0,0.75,0],[0,0.5,0],[0,0.25,0]];" vertex="1" parent="1"><mxGeometry x="-250" y="-740" width="240" height="120" as="geometry"/></mxCell></object><mxCell id="85sUpvyYu7XLjou6rN53-6" style="edgeStyle=orthogonalEdgeStyle;rounded=0;orthogonalLoop=1;jettySize=auto;html=1;" edge="1" parent="1" source="85sUpvyYu7XLjou6rN53-5" target="qfolQS0Iv-JqsglXWNlU-1"><mxGeometry relative="1" as="geometry"><Array as="points"><mxPoint x="-820" y="-380"/></Array></mxGeometry></mxCell><object placeholders="1" c4Name="Сервисы производства мед оборудования" c4Type="Software System" c4Description="Система финансовых сервисов на Golang и Java" label="&lt;font style=&quot;font-size: 16px&quot;&gt;&lt;b&gt;%c4Name%&lt;/b&gt;&lt;/font&gt;&lt;div&gt;[%c4Type%]&lt;/div&gt;&lt;br&gt;&lt;div&gt;&lt;font style=&quot;font-size: 11px&quot;&gt;&lt;font color=&quot;#cccccc&quot;&gt;%c4Description%&lt;/font&gt;&lt;/div&gt;" id="85sUpvyYu7XLjou6rN53-5"><mxCell style="rounded=1;whiteSpace=wrap;html=1;labelBackgroundColor=none;fillColor=#1061B0;fontColor=#ffffff;align=center;arcSize=10;strokeColor=#0D5091;metaEdit=1;resizable=0;points=[[0.25,0,0],[0.5,0,0],[0.75,0,0],[1,0.25,0],[1,0.5,0],[1,0.75,0],[0.75,1,0],[0.5,1,0],[0.25,1,0],[0,0.75,0],[0,0.5,0],[0,0.25,0]];" vertex="1" parent="1"><mxGeometry x="-940" y="-740" width="240" height="120" as="geometry"/></mxCell></object><mxCell id="85sUpvyYu7XLjou6rN53-8" style="edgeStyle=orthogonalEdgeStyle;rounded=0;orthogonalLoop=1;jettySize=auto;html=1;" edge="1" parent="1" source="85sUpvyYu7XLjou6rN53-7" target="HTFtOqsjaucjWdzeqEvK-1"><mxGeometry relative="1" as="geometry"/></mxCell><object placeholders="1" c4Name="UI владельца" c4Type="Container" c4Technology="" c4Description="" label="&lt;font style=&quot;font-size: 16px&quot;&gt;&lt;b&gt;%c4Name%&lt;/b&gt;&lt;/font&gt;&lt;div&gt;[%c4Type%: %c4Technology%]&lt;/div&gt;&lt;br&gt;&lt;div&gt;&lt;font style=&quot;font-size: 11px&quot;&gt;&lt;font color=&quot;#E6E6E6&quot;&gt;%c4Description%&lt;/font&gt;&lt;/div&gt;" id="85sUpvyYu7XLjou6rN53-7"><mxCell style="rounded=1;whiteSpace=wrap;html=1;fontSize=11;labelBackgroundColor=none;fillColor=#23A2D9;fontColor=#ffffff;align=center;arcSize=10;strokeColor=#0E7DAD;metaEdit=1;resizable=0;points=[[0.25,0,0],[0.5,0,0],[0.75,0,0],[1,0.25,0],[1,0.5,0],[1,0.75,0],[0.75,1,0],[0.5,1,0],[0.25,1,0],[0,0.75,0],[0,0.5,0],[0,0.25,0]];" vertex="1" parent="1"><mxGeometry x="1090" y="-20" width="240" height="120" as="geometry"/></mxCell></object><mxCell id="85sUpvyYu7XLjou6rN53-10" style="edgeStyle=orthogonalEdgeStyle;rounded=0;orthogonalLoop=1;jettySize=auto;html=1;" edge="1" parent="1" source="85sUpvyYu7XLjou6rN53-9" target="85sUpvyYu7XLjou6rN53-7"><mxGeometry relative="1" as="geometry"/></mxCell><mxCell id="85sUpvyYu7XLjou6rN53-11" value="управление данными" style="edgeLabel;html=1;align=center;verticalAlign=middle;resizable=0;points=[];" vertex="1" connectable="0" parent="85sUpvyYu7XLjou6rN53-10"><mxGeometry x="-0.1436" y="5" relative="1" as="geometry"><mxPoint y="-5" as="offset"/></mxGeometry></mxCell><object placeholders="1" c4Name="Владелец" c4Type="Person" c4Description="Description of person." label="&lt;font style=&quot;font-size: 16px&quot;&gt;&lt;b&gt;%c4Name%&lt;/b&gt;&lt;/font&gt;&lt;div&gt;[%c4Type%]&lt;/div&gt;&lt;br&gt;&lt;div&gt;&lt;font style=&quot;font-size: 11px&quot;&gt;&lt;font color=&quot;#cccccc&quot;&gt;%c4Description%&lt;/font&gt;&lt;/div&gt;" id="85sUpvyYu7XLjou6rN53-9"><mxCell style="html=1;fontSize=11;dashed=0;whiteSpace=wrap;fillColor=#083F75;strokeColor=#06315C;fontColor=#ffffff;shape=mxgraph.c4.person2;align=center;metaEdit=1;points=[[0.5,0,0],[1,0.5,0],[1,0.75,0],[0.75,1,0],[0.5,1,0],[0.25,1,0],[0,0.75,0],[0,0.5,0]];resizable=0;" vertex="1" parent="1"><mxGeometry x="1590" y="-50" width="200" height="180" as="geometry"/></mxCell></object></root></mxGraphModel></diagram><diagram id="6IDQutLIOQZ1sIi_gpYz" name="Data Flow As Is"><mxGraphModel dx="1337" dy="733" grid="1" gridSize="10" guides="1" tooltips="1" connect="1" arrows="1" fold="1" page="1" pageScale="1" pageWidth="850" pageHeight="1100" math="0" shadow="0"><root><mxCell id="0"/><mxCell id="1" parent="0"/><mxCell id="pXJq8SvggqRPQRYAPwcD-5" value="Медицинские данные, снимки" style="edgeStyle=orthogonalEdgeStyle;rounded=0;orthogonalLoop=1;jettySize=auto;html=1;" parent="1" source="pXJq8SvggqRPQRYAPwcD-1" target="pXJq8SvggqRPQRYAPwcD-2" edge="1"><mxGeometry relative="1" as="geometry"/></mxCell><mxCell id="pXJq8SvggqRPQRYAPwcD-1" value="Клиентский интерфейс оператора" style="rounded=1;whiteSpace=wrap;html=1;" parent="1" vertex="1"><mxGeometry x="330" y="160" width="120" height="60" as="geometry"/></mxCell><mxCell id="pXJq8SvggqRPQRYAPwcD-4" style="edgeStyle=orthogonalEdgeStyle;rounded=0;orthogonalLoop=1;jettySize=auto;html=1;" parent="1" source="pXJq8SvggqRPQRYAPwcD-2" target="pXJq8SvggqRPQRYAPwcD-3" edge="1"><mxGeometry relative="1" as="geometry"/></mxCell><mxCell id="pXJq8SvggqRPQRYAPwcD-6" value="Данные" style="edgeLabel;html=1;align=center;verticalAlign=middle;resizable=0;points=[];" parent="pXJq8SvggqRPQRYAPwcD-4" vertex="1" connectable="0"><mxGeometry x="0.5563" y="4" relative="1" as="geometry"><mxPoint as="offset"/></mxGeometry></mxCell><mxCell id="pXJq8SvggqRPQRYAPwcD-8" style="edgeStyle=orthogonalEdgeStyle;rounded=0;orthogonalLoop=1;jettySize=auto;html=1;startArrow=classic;startFill=1;" parent="1" source="pXJq8SvggqRPQRYAPwcD-2" target="pXJq8SvggqRPQRYAPwcD-7" edge="1"><mxGeometry relative="1" as="geometry"/></mxCell><mxCell id="pXJq8SvggqRPQRYAPwcD-2" value="DWH" style="rounded=1;whiteSpace=wrap;html=1;" parent="1" vertex="1"><mxGeometry x="330" y="290" width="120" height="60" as="geometry"/></mxCell><mxCell id="pXJq8SvggqRPQRYAPwcD-3" value="BI-система" style="rounded=1;whiteSpace=wrap;html=1;" parent="1" vertex="1"><mxGeometry x="610" y="160" width="120" height="60" as="geometry"/></mxCell><mxCell id="pXJq8SvggqRPQRYAPwcD-10" value="Финансовые данные" style="edgeStyle=orthogonalEdgeStyle;rounded=0;orthogonalLoop=1;jettySize=auto;html=1;startArrow=classic;startFill=1;" parent="1" source="pXJq8SvggqRPQRYAPwcD-7" target="pXJq8SvggqRPQRYAPwcD-9" edge="1"><mxGeometry relative="1" as="geometry"/></mxCell><mxCell id="pXJq8SvggqRPQRYAPwcD-12" value="Внутренние финансовые данные&lt;br&gt;Управление клиниками" style="edgeStyle=orthogonalEdgeStyle;rounded=0;orthogonalLoop=1;jettySize=auto;html=1;startArrow=classic;startFill=1;" parent="1" source="pXJq8SvggqRPQRYAPwcD-7" target="pXJq8SvggqRPQRYAPwcD-11" edge="1"><mxGeometry relative="1" as="geometry"/></mxCell><mxCell id="pXJq8SvggqRPQRYAPwcD-14" value="Медицинские данные" style="edgeStyle=orthogonalEdgeStyle;rounded=0;orthogonalLoop=1;jettySize=auto;html=1;startArrow=classic;startFill=1;" parent="1" source="pXJq8SvggqRPQRYAPwcD-7" target="pXJq8SvggqRPQRYAPwcD-13" edge="1"><mxGeometry relative="1" as="geometry"/></mxCell><mxCell id="pXJq8SvggqRPQRYAPwcD-7" value="Интеграционная шина" style="rounded=1;whiteSpace=wrap;html=1;" parent="1" vertex="1"><mxGeometry x="330" y="410" width="120" height="60" as="geometry"/></mxCell><mxCell id="pXJq8SvggqRPQRYAPwcD-9" value="Финтех сервисы" style="rounded=1;whiteSpace=wrap;html=1;" parent="1" vertex="1"><mxGeometry x="610" y="410" width="120" height="60" as="geometry"/></mxCell><mxCell id="pXJq8SvggqRPQRYAPwcD-11" value="Внутренние сервисы" style="rounded=1;whiteSpace=wrap;html=1;" parent="1" vertex="1"><mxGeometry x="330" y="560" width="120" height="60" as="geometry"/></mxCell><mxCell id="pXJq8SvggqRPQRYAPwcD-13" value="ИИ сервисы" style="rounded=1;whiteSpace=wrap;html=1;" parent="1" vertex="1"><mxGeometry x="70" y="410" width="120" height="60" as="geometry"/></mxCell><mxCell id="aiPZVp3kBUqav7ZNihlR-1" value="&lt;span style=&quot;&quot;&gt;ИИ сервисы&lt;/span&gt;" style="html=1;dashed=0;whitespace=wrap;" parent="1" vertex="1"><mxGeometry x="60" y="690" width="100" height="50" as="geometry"/></mxCell><mxCell id="aiPZVp3kBUqav7ZNihlR-2" value="&lt;span style=&quot;&quot;&gt;Интеграционная&lt;br&gt;шина&lt;/span&gt;" style="html=1;dashed=0;whitespace=wrap;" parent="1" vertex="1"><mxGeometry x="340" y="690" width="100" height="50" as="geometry"/></mxCell><mxCell id="aiPZVp3kBUqav7ZNihlR-3" value="" style="endArrow=classic;html=1;rounded=0;startArrow=classic;startFill=1;" parent="1" source="aiPZVp3kBUqav7ZNihlR-1" target="aiPZVp3kBUqav7ZNihlR-2" edge="1"><mxGeometry width="50" height="50" relative="1" as="geometry"><mxPoint x="-20" y="820" as="sourcePoint"/><mxPoint x="30" y="770" as="targetPoint"/></mxGeometry></mxCell><mxCell id="aiPZVp3kBUqav7ZNihlR-4" value="Медицинские данные" style="edgeLabel;html=1;align=center;verticalAlign=middle;resizable=0;points=[];" parent="aiPZVp3kBUqav7ZNihlR-3" vertex="1" connectable="0"><mxGeometry x="0.1306" y="1" relative="1" as="geometry"><mxPoint x="-12" y="1" as="offset"/></mxGeometry></mxCell><mxCell id="aiPZVp3kBUqav7ZNihlR-5" value="" style="html=1;dashed=0;whitespace=wrap;shape=partialRectangle;right=0;" parent="1" vertex="1"><mxGeometry x="540" y="700" width="100" height="30" as="geometry"/></mxCell></root></mxGraphModel></diagram><diagram id="EBDF9jia3ptUSzVBB2LD" name="Data Flow To Be"><mxGraphModel dx="1337" dy="733" grid="1" gridSize="10" guides="1" tooltips="1" connect="1" arrows="1" fold="1" page="1" pageScale="1" pageWidth="850" pageHeight="1100" math="0" shadow="0"><root><mxCell id="0"/><mxCell id="1" parent="0"/></root></mxGraphModel></diagram><diagram id="TjFD408S6Bkmfq5J9xpE" name="Page-5"><mxGraphModel dx="1337" dy="733" grid="1" gridSize="10" guides="1" tooltips="1" connect="1" arrows="1" fold="1" page="1" pageScale="1" pageWidth="850" pageHeight="1100" math="0" shadow="0"><root><mxCell id="0"/><mxCell id="1" parent="0"/><mxCell id="C-2x25Se406W4lswiI_y-1" value="Причина:&lt;br&gt;1. Данных много&lt;br&gt;2. Они из разных предметных областей&lt;br&gt;&lt;br&gt;Проблемы:&lt;br&gt;1. Приводит к проблеме анализа - становится недостаточно специалистов аналитиков для генерациии отчетов&lt;br&gt;&lt;br&gt;Необходима независимая группа экспертов, которая вырабатывает стандарты и политики для продуктов, в идеале эти политики автоматизируются на уровне платформы данных&lt;br&gt;&lt;br&gt;&lt;br&gt;Каждый продукт данных (data product, DP) имеет границы по DDD, собирает операционные данные, использует аналитические данные и публикует контракт, который может использовать другой продукт." style="text;html=1;strokeColor=none;fillColor=none;align=left;verticalAlign=top;whiteSpace=wrap;rounded=0;" parent="1" vertex="1"><mxGeometry x="190" y="100" width="670" height="240" as="geometry"/></mxCell><mxCell id="94uQgqji1G67I0w8qgxQ-1" value="Множество технологий" style="text;html=1;align=center;verticalAlign=middle;resizable=0;points=[];autosize=1;strokeColor=none;fillColor=none;" vertex="1" parent="1"><mxGeometry x="125" y="355" width="150" height="30" as="geometry"/></mxCell><mxCell id="94uQgqji1G67I0w8qgxQ-2" value="Сложная интеграция&amp;nbsp;" style="text;html=1;align=center;verticalAlign=middle;resizable=0;points=[];autosize=1;strokeColor=none;fillColor=none;" vertex="1" parent="1"><mxGeometry x="120" y="445" width="140" height="30" as="geometry"/></mxCell><mxCell id="94uQgqji1G67I0w8qgxQ-3" value="Сложные ETL процессы" style="text;html=1;align=center;verticalAlign=middle;resizable=0;points=[];autosize=1;strokeColor=none;fillColor=none;" vertex="1" parent="1"><mxGeometry x="175" y="485" width="160" height="30" as="geometry"/></mxCell></root></mxGraphModel></diagram></mxfile>